<svg xmlns="http://www.w3.org/2000/svg" viewBox="0 0 400 240">
  <defs>
    <linearGradient id="sky2" x1="0" y1="0" x2="0" y2="1">
      <stop offset="0" stop-color="#37474f"/>
      <stop offset="1" stop-color="#1c2531"/>
    </linearGradient>
  </defs>
  <rect width="400" height="240" fill="url(#sky2)"/>
  <rect x="0" y="190" width="400" height="50" fill="#22282f"/>
  <!-- shelf -->
  <rect x="40" y="60" width="320" height="8" fill="#455a64"/>
  <rect x="40" y="150" width="320" height="8" fill="#455a64"/>
  <rect x="44" y="68" width="8" height="82" fill="#37474f"/>
  <rect x="348" y="68" width="8" height="82" fill="#37474f"/>
  <!-- drums -->
  <g>
    <rect x="70" y="90" width="46" height="60" rx="6" fill="#fb8c00"/>
    <rect x="70" y="90" width="46" height="10" fill="#ffb74d"/>
    <rect x="70" y="128" width="46" height="6" fill="#ef6c00"/>
    <text x="93" y="118" font-size="14" fill="#fff" text-anchor="middle" font-family="Arial">!</text>
  </g>
  <g>
    <rect x="140" y="100" width="42" height="50" rx="6" fill="#fdd835"/>
    <rect x="140" y="100" width="42" height="9" fill="#fff59d"/>
    <text x="161" y="128" font-size="12" fill="#5d4037" text-anchor="middle" font-family="Arial">化學品</text>
  </g>
  <g>
    <rect x="210" y="92" width="46" height="58" rx="6" fill="#ef5350"/>
    <rect x="210" y="92" width="46" height="10" fill="#ef9a9a"/>
    <text x="233" y="120" font-size="14" fill="#fff" text-anchor="middle" font-family="Arial">⚠</text>
  </g>
  <!-- fire extinguisher -->
  <g>
    <rect x="290" y="100" width="20" height="50" rx="8" fill="#e53935"/>
    <rect x="296" y="92" width="8" height="10" fill="#9e9e9e"/>
    <rect x="285" y="90" width="30" height="6" fill="#616161"/>
  </g>
  <rect x="0" y="220" width="400" height="20" fill="#10141a"/>
</svg>
